<?xml version="1.0" encoding="utf-8"?>
<!-- Generator: Adobe Illustrator 24.0.2, SVG Export Plug-In . SVG Version: 6.00 Build 0)  -->
<svg version="1.1" id="Layer_1" xmlns="http://www.w3.org/2000/svg" xmlns:xlink="http://www.w3.org/1999/xlink" x="0px" y="0px"
	 viewBox="0 0 179.1 38" style="enable-background:new 0 0 179.1 38;" xml:space="preserve">
<style type="text/css">
	.st0{fill:#0B36A8;}
	.st1{fill:#FFFFFF;}
	.st2{font-family:'Rockwell-Regular';}
	.st3{font-size:25px;}
</style>
<title>logo</title>
<ellipse class="st0" cx="19" cy="19" rx="19" ry="19"/>
<g>
	<g>
		<path class="st1" d="M52.3,9.5h5.3V17h0.1l5.1-7.5h5.8l-6,8.2l7.2,12h-5.8l-4.5-7.8l-1.9,2.7v5h-5.3V9.5z"/>
		<path class="st1" d="M71.5,21.9c0-5,3.7-8.1,7.4-8.1c4.6,0,6.8,3.3,6.8,7.5c0,0.9-0.1,1.9-0.2,2.2h-8.8c0.5,1.9,1.9,2.5,3.6,2.5
			c1.1,0,2-0.3,3.2-0.9l1.7,3.2c-1.7,1.2-3.9,1.8-5.6,1.8C75,30.1,71.5,27.1,71.5,21.9z M81.2,20.1c0-1.2-0.5-2.2-2.1-2.2
			c-1.2,0-2.2,0.7-2.5,2.2H81.2z"/>
		<path class="st1" d="M89.5,14.2h4.3l0.4,1.9h0.1c1.2-1.2,2.8-2.2,4.9-2.2c3.4,0,4.8,2.5,4.8,6.3v9.6h-5.3v-8.9
			c0-2-0.5-2.5-1.6-2.5c-1,0-1.5,0.4-2.4,1.2v10.2h-5.3V14.2z"/>
		<path class="st1" d="M108.5,14.2h4.3l0.4,1.9h0.1c1.2-1.2,2.8-2.2,4.9-2.2c3.4,0,4.8,2.5,4.8,6.3v9.6h-5.3v-8.9
			c0-2-0.5-2.5-1.5-2.5c-1,0-1.6,0.4-2.4,1.2v10.2h-5.3V14.2z"/>
		<path class="st1" d="M126.7,21.9c0-5,3.7-8.1,7.4-8.1c4.6,0,6.8,3.3,6.8,7.5c0,0.9-0.1,1.9-0.2,2.2h-8.8c0.5,1.9,1.9,2.5,3.6,2.5
			c1.1,0,2-0.3,3.2-0.9l1.7,3.2c-1.7,1.2-3.9,1.8-5.6,1.8C130.1,30.1,126.7,27.1,126.7,21.9z M136.3,20.1c0-1.2-0.5-2.2-2.1-2.2
			c-1.2,0-2.2,0.7-2.5,2.2H136.3z"/>
		<path class="st1" d="M145.4,23.7v-5.4h-2v-4l2.4-0.2l0.6-4h4.4v4h3.5v4.2h-3.5v5.3c0,1.7,0.9,2.3,1.9,2.3c0.5,0,1-0.1,1.4-0.2
			l0.8,3.8c-0.8,0.2-2,0.6-3.7,0.6C147.1,30.1,145.4,27.5,145.4,23.7z"/>
		<path class="st1" d="M158,8.1h5.3v5l-0.2,2.7c1.1-0.9,2.5-2,4.7-2c3.4,0,4.8,2.5,4.8,6.3v9.6h-5.3v-8.9c0-2-0.5-2.5-1.5-2.5
			c-1,0-1.6,0.4-2.4,1.2v10.2H158V8.1z"/>
	</g>
</g>
<text transform="matrix(1 0 0 1 10.8394 27.6837)" class="st1 st2 st3">K</text>
</svg>
